<?xml version="1.0" encoding="utf-8"?>
<!-- Generator: Adobe Illustrator 24.3.0, SVG Export Plug-In . SVG Version: 6.00 Build 0)  -->
<svg version="1.1" id="Layer_1" xmlns="http://www.w3.org/2000/svg" xmlns:xlink="http://www.w3.org/1999/xlink" x="0px" y="0px"
	 viewBox="0 0 240 120" style="enable-background:new 0 0 240 120;" xml:space="preserve">
<style type="text/css">
	.st0{display:none;fill:#0C8140;}
	.st1{fill:#0C8140;}
	.st2{font-family:'Montserrat-Bold';}
	.st3{font-size:10.2706px;}
	.st4{font-family:'Montserrat-SemiBold';}
	.st5{font-size:4.8908px;}
</style>
<rect class="st0" width="240" height="120"/>
<g>
	<g>
		<g>
			<g>
				<g>
					<polygon class="st1" points="117.2,67 117.3,67 117.3,25.6 110.2,25.6 110.2,72.5 117.2,72.5 					"/>
					<rect x="129.3" y="68.6" class="st1" width="10.2" height="3.9"/>
				</g>
				<polygon class="st1" points="120.1,78.7 120.1,19.4 127.1,19.4 127.1,74.8 149.4,74.8 149.4,78.7 				"/>
			</g>
		</g>
		<g>
			<text transform="matrix(1 0 0 1 109.6729 92.9551)" class="st1 st2 st3">LIFE LINE</text>
			<text transform="matrix(1 0 0 1 109.9272 98.1045)" class="st1 st4 st5">BILLING SOLUTIONS </text>
		</g>
	</g>
	<path class="st1" d="M159.7,81h-48.5l-2.9-5.4c-0.1-0.2-0.4-0.4-0.7-0.3c-0.3,0-0.5,0.2-0.6,0.5l-2,8.3l-4-24.7
		c-0.1-0.3-0.4-0.6-0.7-0.6c-0.3,0-0.6,0.3-0.6,0.6l-1.9,32.4L95,76.1c-0.1-0.3-0.3-0.5-0.6-0.6c-0.3,0-0.6,0.2-0.7,0.5l-1.7,6
		l-0.1-0.5c-0.1-0.3-0.3-0.5-0.7-0.5H71.4c-0.4,0-0.7,0.3-0.7,0.7s0.3,0.7,0.7,0.7h19.2l0.6,2.5c0.1,0.3,0.3,0.5,0.6,0.5
		c0.3,0,0.6-0.2,0.7-0.5l1.6-5.6l3.3,18.4c0.1,0.3,0.3,0.6,0.7,0.6c0,0,0,0,0,0c0.3,0,0.6-0.3,0.6-0.6l1.9-31.9l3.6,22
		c0.1,0.3,0.3,0.6,0.6,0.6c0.3,0,0.6-0.2,0.7-0.5l2.4-9.9l2.3,4.2c0.1,0.2,0.3,0.4,0.6,0.4h48.9V81z"/>
</g>
</svg>
