<?xml version="1.0" encoding="utf-8"?>
<!-- Generator: Adobe Illustrator 24.3.0, SVG Export Plug-In . SVG Version: 6.00 Build 0)  -->
<svg version="1.1" id="Layer_1" xmlns="http://www.w3.org/2000/svg" xmlns:xlink="http://www.w3.org/1999/xlink" x="0px" y="0px"
	 viewBox="0 0 50 50" style="enable-background:new 0 0 50 50;" xml:space="preserve">
<style type="text/css">
	.st0{fill:#0C8140;}
	.st1{fill:#FFFFFF;}
	.st2{font-family:'Montserrat-Bold';}
	.st3{font-size:4.2794px;}
	.st4{font-family:'Montserrat-SemiBold';}
	.st5{font-size:2.0378px;}
</style>
<g>
	<rect x="-25" class="st0" width="100" height="50"/>
	<g>
		<g>
			<g>
				<g>
					<g>
						<polygon class="st1" points="23.9,27.9 23.9,27.9 23.9,10.7 20.9,10.7 20.9,30.2 23.9,30.2 						"/>
						<rect x="28.9" y="28.6" class="st1" width="4.2" height="1.6"/>
					</g>
					<polygon class="st1" points="25,32.8 25,8.1 28,8.1 28,31.2 37.3,31.2 37.3,32.8 					"/>
				</g>
			</g>
			<g>
				<text transform="matrix(1 0 0 1 20.6973 38.7314)" class="st1 st2 st3">LIFE LINE</text>
				<text transform="matrix(1 0 0 1 20.8037 40.877)" class="st1 st4 st5">BILLING SOLUTIONS </text>
			</g>
		</g>
		<path class="st1" d="M41.5,33.8H21.3l-1.2-2.2c-0.1-0.1-0.2-0.2-0.3-0.1c-0.1,0-0.2,0.1-0.2,0.2L18.8,35l-1.7-10.3
			c0-0.1-0.1-0.2-0.3-0.2c-0.1,0-0.3,0.1-0.3,0.3l-0.8,13.5l-1.2-6.5c0-0.1-0.1-0.2-0.3-0.2c-0.1,0-0.3,0.1-0.3,0.2l-0.7,2.5
			L13.3,34c0-0.1-0.1-0.2-0.3-0.2H4.7c-0.2,0-0.3,0.1-0.3,0.3c0,0.2,0.1,0.3,0.3,0.3h8l0.3,1c0,0.1,0.1,0.2,0.3,0.2
			c0.1,0,0.2-0.1,0.3-0.2l0.7-2.3l1.4,7.7c0,0.1,0.1,0.2,0.3,0.2c0,0,0,0,0,0c0.1,0,0.3-0.1,0.3-0.3l0.8-13.3l1.5,9.2
			c0,0.1,0.1,0.2,0.3,0.2c0.1,0,0.3-0.1,0.3-0.2l1-4.1l0.9,1.7c0,0.1,0.1,0.1,0.2,0.1h20.4V33.8z"/>
	</g>
</g>
</svg>
