<svg xmlns="http://www.w3.org/2000/svg" xmlns:xlink="http://www.w3.org/1999/xlink" id="Layer_1" x="0px" y="0px" viewBox="0 0 96 83" style="enable-background:new 0 0 96 83;" xml:space="preserve"><style type="text/css">	.st0{fill:#FFFFFF;}</style><path class="st0" d="M61,50.8h10.2v3.9H61V50.8z M81.1,60.9V57H58.8V1.5h-7v59.4H81.1z M43.8,68h-1.7v7.2h5.3v-1.4h-3.6V68z  M48.4,68H50v7.2h-1.7V68z M51.7,68h5.4v1.3h-3.8v1.9h3.3v1.3h-3.3v2.6h-1.7V68z M60,73.8h3.9v1.3h-5.6V68h5.4v1.3H60v1.6h3.3v1.3 H60V73.8z M69.8,73.8h3.6v1.4h-5.3V68h1.7V73.8z M74.3,68H76v7.2h-1.7V68z M82.6,68h1.6v7.2h-1.4l-3.6-4.4v4.4h-1.6V68h1.4l3.6,4.4 V68z M91.6,73.8v1.3H86V68h5.5v1.3h-3.9v1.6H91v1.3h-3.3v1.7H91.6z M43.7,80.4c0.4,0,0.8-0.1,1-0.2c0.2-0.2,0.3-0.4,0.3-0.7 c0-0.2,0-0.4-0.1-0.5c-0.1-0.1-0.2-0.2-0.4-0.3c-0.1-0.1-0.3-0.1-0.5-0.1l-0.1,0.2c0.2,0,0.3,0,0.5-0.1c0.1-0.1,0.2-0.2,0.3-0.3 c0.1-0.1,0.1-0.3,0.1-0.5c0-0.3-0.1-0.5-0.3-0.6S44,77,43.6,77H42v3.3H43.7z M42.6,77.5h0.9c0.2,0,0.4,0,0.5,0.1s0.2,0.2,0.2,0.3 c0,0.2-0.1,0.3-0.2,0.3c-0.1,0.1-0.3,0.1-0.5,0.1h-0.9v0.5h1.1c0.2,0,0.4,0,0.5,0.1s0.2,0.2,0.2,0.4c0,0.2-0.1,0.3-0.2,0.4 s-0.3,0.1-0.5,0.1h-1V77.5z M46.3,80.4V77h-0.6v3.3H46.3z M49.5,80.4v-0.5h-1.7V77h-0.6v3.3H49.5z M52.4,80.4v-0.5h-1.7V77H50v3.3 H52.4z M53.5,80.4V77h-0.6v3.3H53.5z M55,80.4v-2.6h-0.3l2.1,2.6h0.5V77h-0.6v2.6H57L54.9,77h-0.5v3.3H55z M60.5,80.3 c0.2-0.1,0.4-0.2,0.6-0.3l-0.4-0.5c-0.1,0.1-0.3,0.2-0.4,0.3s-0.3,0.1-0.5,0.1c-0.2,0-0.3,0-0.5-0.1c-0.1-0.1-0.3-0.1-0.4-0.2 s-0.2-0.2-0.2-0.4c-0.1-0.1-0.1-0.3-0.1-0.5c0-0.2,0-0.3,0.1-0.5c0.1-0.1,0.1-0.3,0.2-0.4c0.1-0.1,0.2-0.2,0.4-0.2 c0.1-0.1,0.3-0.1,0.5-0.1c0.2,0,0.3,0,0.5,0.1c0.2,0.1,0.3,0.2,0.4,0.3l0.4-0.4c-0.2-0.2-0.3-0.3-0.6-0.4C60.4,77,60.1,77,59.8,77 c-0.3,0-0.5,0-0.7,0.1s-0.4,0.2-0.6,0.4c-0.2,0.2-0.3,0.3-0.4,0.5c-0.1,0.2-0.1,0.4-0.1,0.7s0,0.5,0.1,0.7c0.1,0.2,0.2,0.4,0.4,0.5 s0.4,0.3,0.6,0.4c0.2,0.1,0.5,0.1,0.7,0.1C60.1,80.4,60.3,80.4,60.5,80.3z M61.1,80v-1.3h-0.6v1.2L61.1,80z M65.1,80.3 c0.2-0.1,0.3-0.2,0.4-0.4c0.1-0.2,0.1-0.3,0.1-0.5c0-0.2,0-0.3-0.1-0.4c-0.1-0.1-0.2-0.2-0.3-0.3c-0.1-0.1-0.2-0.1-0.4-0.2 s-0.3-0.1-0.4-0.1c-0.1,0-0.3-0.1-0.4-0.1c-0.1,0-0.2-0.1-0.3-0.1c-0.1-0.1-0.1-0.1-0.1-0.2c0-0.1,0-0.2,0.1-0.2 c0-0.1,0.1-0.1,0.2-0.2c0.1,0,0.2-0.1,0.4-0.1c0.1,0,0.3,0,0.5,0.1c0.2,0,0.3,0.1,0.5,0.2l0.2-0.5c-0.1-0.1-0.3-0.2-0.5-0.2 S64.6,77,64.4,77c-0.3,0-0.6,0-0.8,0.1c-0.2,0.1-0.3,0.2-0.4,0.4c-0.1,0.2-0.1,0.3-0.1,0.5c0,0.2,0,0.3,0.1,0.4 c0.1,0.1,0.2,0.2,0.3,0.3c0.1,0.1,0.2,0.1,0.4,0.2s0.3,0.1,0.4,0.1c0.1,0,0.3,0.1,0.4,0.1c0.1,0,0.2,0.1,0.3,0.1 c0.1,0.1,0.1,0.1,0.1,0.2c0,0.1,0,0.2-0.1,0.2c-0.1,0.1-0.1,0.1-0.2,0.2c-0.1,0-0.2,0.1-0.4,0.1c-0.2,0-0.4,0-0.6-0.1 c-0.2-0.1-0.4-0.2-0.5-0.3L63,80c0.1,0.1,0.3,0.2,0.6,0.3c0.2,0.1,0.5,0.1,0.7,0.1C64.6,80.4,64.9,80.4,65.1,80.3z M68.6,80.3 c0.2-0.1,0.4-0.2,0.6-0.4c0.2-0.2,0.3-0.3,0.4-0.5c0.1-0.2,0.1-0.4,0.1-0.7s0-0.5-0.1-0.7c-0.1-0.2-0.2-0.4-0.4-0.5 s-0.4-0.3-0.6-0.4S68.1,77,67.8,77c-0.3,0-0.5,0-0.7,0.1s-0.4,0.2-0.6,0.4s-0.3,0.3-0.4,0.5c-0.1,0.2-0.1,0.4-0.1,0.7s0,0.5,0.1,0.7 s0.2,0.4,0.4,0.5s0.4,0.3,0.6,0.4s0.5,0.1,0.7,0.1C68.1,80.4,68.3,80.4,68.6,80.3z M67.4,79.8c-0.1-0.1-0.3-0.1-0.4-0.2 c-0.1-0.1-0.2-0.2-0.2-0.4c-0.1-0.1-0.1-0.3-0.1-0.5c0-0.2,0-0.3,0.1-0.5c0.1-0.1,0.1-0.3,0.2-0.4c0.1-0.1,0.2-0.2,0.4-0.2 c0.1-0.1,0.3-0.1,0.5-0.1c0.2,0,0.3,0,0.5,0.1c0.1,0.1,0.3,0.1,0.4,0.2c0.1,0.1,0.2,0.2,0.2,0.4s0.1,0.3,0.1,0.5s0,0.3-0.1,0.5 s-0.1,0.3-0.2,0.4c-0.1,0.1-0.2,0.2-0.4,0.2c-0.1,0.1-0.3,0.1-0.5,0.1C67.7,79.9,67.5,79.9,67.4,79.8z M72.7,80.4v-0.5h-1.7V77h-0.6 v3.3H72.7z M75.6,80c0.3-0.3,0.4-0.6,0.4-1.1V77h-0.6v1.9c0,0.3-0.1,0.6-0.2,0.7c-0.1,0.2-0.4,0.2-0.6,0.2s-0.5-0.1-0.6-0.2 c-0.1-0.2-0.2-0.4-0.2-0.7V77h-0.6v1.9c0,0.5,0.1,0.9,0.4,1.1c0.3,0.3,0.6,0.4,1.1,0.4C75,80.4,75.4,80.3,75.6,80z M78.1,80.4v-2.8 h1.1V77h-2.8v0.5h1.1v2.8H78.1z M80.3,80.4V77h-0.6v3.3H80.3z M83.5,80.3c0.2-0.1,0.4-0.2,0.6-0.4c0.2-0.2,0.3-0.3,0.4-0.5 c0.1-0.2,0.1-0.4,0.1-0.7s0-0.5-0.1-0.7c-0.1-0.2-0.2-0.4-0.4-0.5s-0.4-0.3-0.6-0.4S83,77,82.8,77c-0.3,0-0.5,0-0.7,0.1 s-0.4,0.2-0.6,0.4s-0.3,0.3-0.4,0.5C81,78.2,81,78.5,81,78.7s0,0.5,0.1,0.7s0.2,0.4,0.4,0.5s0.4,0.3,0.6,0.4s0.5,0.1,0.7,0.1 C83,80.4,83.3,80.4,83.5,80.3z M82.3,79.8c-0.1-0.1-0.3-0.1-0.4-0.2c-0.1-0.1-0.2-0.2-0.2-0.4c-0.1-0.1-0.1-0.3-0.1-0.5 c0-0.2,0-0.3,0.1-0.5c0.1-0.1,0.1-0.3,0.2-0.4c0.1-0.1,0.2-0.2,0.4-0.2c0.1-0.1,0.3-0.1,0.5-0.1c0.2,0,0.3,0,0.5,0.1 c0.1,0.1,0.3,0.1,0.4,0.2c0.1,0.1,0.2,0.2,0.2,0.4s0.1,0.3,0.1,0.5s0,0.3-0.1,0.5s-0.1,0.3-0.2,0.4c-0.1,0.1-0.2,0.2-0.4,0.2 c-0.1,0.1-0.3,0.1-0.5,0.1C82.6,79.9,82.4,79.9,82.3,79.8z M85.8,80.4v-2.6h-0.3l2.1,2.6h0.5V77h-0.6v2.6h0.3L85.7,77h-0.5v3.3H85.8 z M90.9,80.3c0.2-0.1,0.3-0.2,0.4-0.4c0.1-0.2,0.1-0.3,0.1-0.5c0-0.2,0-0.3-0.1-0.4c-0.1-0.1-0.2-0.2-0.3-0.3 c-0.1-0.1-0.2-0.1-0.4-0.2s-0.3-0.1-0.4-0.1c-0.1,0-0.3-0.1-0.4-0.1s-0.2-0.1-0.3-0.1c-0.1-0.1-0.1-0.1-0.1-0.2c0-0.1,0-0.2,0.1-0.2 c0-0.1,0.1-0.1,0.2-0.2c0.1,0,0.2-0.1,0.4-0.1c0.1,0,0.3,0,0.5,0.1c0.2,0,0.3,0.1,0.5,0.2l0.2-0.5c-0.1-0.1-0.3-0.2-0.5-0.2 S90.4,77,90.2,77c-0.3,0-0.6,0-0.8,0.1c-0.2,0.1-0.3,0.2-0.4,0.4c-0.1,0.2-0.1,0.3-0.1,0.5c0,0.2,0,0.3,0.1,0.4 c0.1,0.1,0.2,0.2,0.3,0.3c0.1,0.1,0.2,0.1,0.4,0.2s0.3,0.1,0.4,0.1c0.1,0,0.3,0.1,0.4,0.1c0.1,0,0.2,0.1,0.3,0.1 c0.1,0.1,0.1,0.1,0.1,0.2c0,0.1,0,0.2-0.1,0.2c-0.1,0.1-0.1,0.1-0.2,0.2c-0.1,0-0.2,0.1-0.4,0.1c-0.2,0-0.4,0-0.6-0.1 c-0.2-0.1-0.4-0.2-0.5-0.3L88.8,80c0.1,0.1,0.3,0.2,0.6,0.3c0.2,0.1,0.5,0.1,0.7,0.1C90.4,80.4,90.7,80.4,90.9,80.3z M41.8,7.8v46.9 h4.5h2.5H49v-5.5v-0.8V7.8H41.8z M42.8,63.2l-2.9-5.4c-0.1-0.2-0.4-0.4-0.7-0.3c-0.3,0-0.5,0.2-0.6,0.5l-2,8.3l-4-24.7 c-0.1-0.3-0.4-0.6-0.7-0.6c-0.3,0-0.6,0.3-0.6,0.6L29.4,74l-2.8-15.7c-0.1-0.3-0.3-0.5-0.6-0.6c-0.3,0-0.6,0.2-0.7,0.5l-1.7,6 l-0.1-0.5c-0.1-0.3-0.3-0.5-0.7-0.5H3.5v1.4h18.7l0.6,2.5c0.1,0.3,0.3,0.5,0.6,0.5s0.6-0.2,0.7-0.5l1.6-5.6L29,79.9 c0.1,0.3,0.3,0.6,0.7,0.6c0.3,0,0.6-0.3,0.6-0.6L32.2,48l3.6,22c0.1,0.3,0.3,0.6,0.6,0.6s0.6-0.2,0.7-0.5l2.4-9.9l2.3,4.2 c0.1,0.2,0.3,0.4,0.6,0.4h48.9v-1.6H42.8z"></path></svg>